<?xml version="1.0" encoding="UTF-8"?>
<svg id="Ebene_1" data-name="Ebene 1" xmlns="http://www.w3.org/2000/svg" version="1.1" viewBox="0 0 40 40">
  <defs>
    <style>
      .cls-1 {
        isolation: isolate;
      }

      .cls-2 {
        fill: #efefef;
        stroke-width: 0px;
      }
    </style>
  </defs>
  <g class="cls-1">
    <g class="cls-1">
      <path class="cls-2" d="M14.3,21.5v-1.8h4.8v4.4c-.5.4-1.1.8-2,1.2-.9.3-1.8.5-2.7.5s-2.1-.2-3-.7c-.9-.5-1.5-1.2-1.9-2.1-.4-.9-.6-1.9-.6-2.9s.2-2.2.7-3,1.2-1.6,2.1-2c.7-.4,1.6-.5,2.6-.5s2.4.3,3.2.9c.8.6,1.3,1.4,1.5,2.4l-2.2.4c-.2-.5-.4-1-.9-1.3-.4-.3-1-.5-1.6-.5-1,0-1.7.3-2.3.9s-.9,1.5-.9,2.7.3,2.3.9,2.9c.6.6,1.3,1,2.3,1s.9,0,1.4-.3c.5-.2.9-.4,1.2-.7v-1.4h-2.5Z"/>
      <path class="cls-2" d="M20.7,20.1c0-1.1.2-2,.5-2.8.2-.6.6-1.1,1-1.5.4-.4.9-.8,1.4-1,.7-.3,1.5-.4,2.4-.4,1.6,0,2.9.5,3.9,1.5,1,1,1.5,2.4,1.5,4.2s-.5,3.1-1.4,4.1-2.2,1.5-3.8,1.5-2.9-.5-3.9-1.5-1.4-2.4-1.4-4.1ZM22.9,20c0,1.2.3,2.2.9,2.8.6.6,1.3,1,2.2,1s1.6-.3,2.2-1c.6-.6.8-1.6.8-2.9s-.3-2.2-.8-2.8c-.5-.6-1.3-.9-2.2-.9s-1.6.3-2.2.9c-.6.6-.8,1.6-.8,2.8Z"/>
    </g>
  </g>
</svg>