<?xml version="1.0" encoding="UTF-8"?>
<svg id="Ebene_1" data-name="Ebene 1" xmlns="http://www.w3.org/2000/svg" version="1.1" viewBox="0 0 144 144">
  <defs>
    <style>
      .cls-1 {
        fill: #00e602;
      }

      .cls-1, .cls-2 {
        stroke-width: 0px;
      }

      .cls-3 {
        isolation: isolate;
      }

      .cls-2 {
        fill: #fff;
      }
    </style>
  </defs>
  <rect class="cls-1" width="144" height="144"/>
  <g class="cls-3">
    <g class="cls-3">
      <path class="cls-2" d="M51.5,77.2v-6.6h17.1v15.7c-1.7,1.6-4.1,3-7.2,4.3-3.2,1.2-6.4,1.8-9.6,1.8s-7.7-.9-10.8-2.6-5.4-4.2-6.9-7.4c-1.5-3.2-2.3-6.7-2.3-10.5s.9-7.7,2.6-10.9c1.7-3.2,4.2-5.6,7.5-7.3,2.5-1.3,5.7-2,9.4-2s8.7,1,11.5,3.1c2.7,2.1,4.5,4.9,5.3,8.5l-7.9,1.5c-.6-1.9-1.6-3.5-3.1-4.6-1.5-1.1-3.4-1.7-5.7-1.7-3.5,0-6.2,1.1-8.3,3.3-2,2.2-3.1,5.5-3.1,9.8s1,8.2,3.1,10.5c2.1,2.3,4.8,3.5,8.2,3.5s3.3-.3,5-1c1.7-.7,3.1-1.4,4.3-2.4v-5h-9.1Z"/>
      <path class="cls-2" d="M74.4,72.3c0-4,.6-7.4,1.8-10.1.9-2,2.1-3.8,3.7-5.4,1.5-1.6,3.2-2.8,5.1-3.5,2.5-1,5.3-1.6,8.5-1.6,5.8,0,10.4,1.8,13.9,5.4s5.2,8.6,5.2,15-1.7,11.3-5.2,14.9-8.1,5.4-13.9,5.4-10.5-1.8-14-5.4c-3.5-3.6-5.2-8.5-5.2-14.8ZM82.6,72c0,4.5,1,7.8,3.1,10.1,2.1,2.3,4.7,3.5,7.8,3.5s5.8-1.1,7.8-3.4c2-2.3,3-5.7,3-10.3s-1-7.9-3-10.1-4.6-3.3-7.9-3.3-5.9,1.1-7.9,3.4c-2,2.2-3,5.6-3,10.2Z"/>
    </g>
  </g>
</svg>